<svg xmlns="http://www.w3.org/2000/svg" width="264" height="71.111" viewBox="0 0 264 71.111">
  <g id="Grupo_5" data-name="Grupo 5" transform="translate(650 -1588)">
    <path id="desktop-solid" d="M73.333,0H6.667A6.668,6.668,0,0,0,0,6.667V51.111a6.668,6.668,0,0,0,6.667,6.667H33.333l-2.222,6.667h-10a3.333,3.333,0,1,0,0,6.667H58.889a3.333,3.333,0,1,0,0-6.667h-10l-2.222-6.667H73.333A6.668,6.668,0,0,0,80,51.111V6.667A6.668,6.668,0,0,0,73.333,0ZM71.111,48.889H8.889v-40H71.111Z" transform="translate(-650 1588)" fill="#5d5d5d"/>
    <path id="laptop-solid" d="M78,52H47.693A3.94,3.94,0,0,1,43.6,56H36a4.245,4.245,0,0,1-4.1-4H2a2.006,2.006,0,0,0-2,2v2a8.024,8.024,0,0,0,8,8H72a8.024,8.024,0,0,0,8-8V54A2.006,2.006,0,0,0,78,52ZM72,6a6.018,6.018,0,0,0-6-6H14A6.018,6.018,0,0,0,8,6V48H72ZM64,40H16V8H64Z" transform="translate(-538 1592)" fill="#5d5d5d"/>
    <path id="mobile-alt-solid" d="M34,0H6A6,6,0,0,0,0,6V58a6,6,0,0,0,6,6H34a6,6,0,0,0,6-6V6A6,6,0,0,0,34,0ZM20,60a4,4,0,1,1,4-4A4,4,0,0,1,20,60ZM34,46.5A1.5,1.5,0,0,1,32.5,48H7.5A1.5,1.5,0,0,1,6,46.5V7.5A1.5,1.5,0,0,1,7.5,6h25A1.5,1.5,0,0,1,34,7.5Z" transform="translate(-426 1592)" fill="#5d5d5d"/>
  </g>
</svg>
