<svg xmlns="http://www.w3.org/2000/svg" width="80" height="75.295" viewBox="0 0 80 75.295">
  <path id="hand-holding-usd-solid" d="M37.883,21.221l7.353,2.1A1.237,1.237,0,0,1,44.9,25.75H40.074a3.783,3.783,0,0,1-1.515-.324,1.823,1.823,0,0,0-2.074.294l-2.574,2.574A1.764,1.764,0,0,0,34.133,31a10.746,10.746,0,0,0,4.677,1.691v2.6a2.36,2.36,0,0,0,2.353,2.353h2.353a2.36,2.36,0,0,0,2.353-2.353V32.706a8.274,8.274,0,0,0,7.25-9.265,8.629,8.629,0,0,0-6.309-7.015l-7.353-2.1a1.237,1.237,0,0,1,.338-2.426h4.824a3.783,3.783,0,0,1,1.515.324,1.823,1.823,0,0,0,2.074-.294L50.78,9.353a1.764,1.764,0,0,0-.221-2.706,10.746,10.746,0,0,0-4.677-1.691v-2.6A2.36,2.36,0,0,0,43.53,0H41.177a2.36,2.36,0,0,0-2.353,2.353V4.941a8.274,8.274,0,0,0-7.25,9.265A8.629,8.629,0,0,0,37.883,21.221Zm40.633,27.03a4.416,4.416,0,0,0-5.927,0L59.765,59.118a8.553,8.553,0,0,1-5.559,2.059H37.78a2.357,2.357,0,0,1,0-4.706H48.648a4.71,4.71,0,0,0,.235-9.412H26.662a15.724,15.724,0,0,0-10.28,3.868L9.927,56.471H2.221A2.3,2.3,0,0,0,0,58.824V72.942a2.3,2.3,0,0,0,2.221,2.353H51.765a8.611,8.611,0,0,0,5.559-2.059l21-17.794a4.886,4.886,0,0,0,.191-7.191Z" fill="#5d5d5d"/>
</svg>
