<svg xmlns="http://www.w3.org/2000/svg" width="31.345" height="31.352" viewBox="0 0 31.345 31.352">
  <path id="globe-solid" d="M21.27,17.608C20.353,11.963,18.191,8,15.676,8S11,11.963,10.082,17.608ZM9.608,23.676a39.619,39.619,0,0,0,.209,4.045H21.529a39.618,39.618,0,0,0,.209-4.045,39.619,39.619,0,0,0-.209-4.045H9.816A39.619,39.619,0,0,0,9.608,23.676Zm20.524-6.068a15.709,15.709,0,0,0-9.987-8.95,21.334,21.334,0,0,1,3.16,8.95ZM11.2,8.657a15.7,15.7,0,0,0-9.981,8.95H8.046A21.247,21.247,0,0,1,11.2,8.657ZM30.808,19.63h-7.25c.133,1.327.209,2.686.209,4.045s-.076,2.718-.209,4.045H30.8a15.541,15.541,0,0,0,.544-4.045,15.812,15.812,0,0,0-.537-4.045ZM7.585,23.676c0-1.359.076-2.718.209-4.045H.544a15.324,15.324,0,0,0,0,8.091H7.787C7.661,26.394,7.585,25.035,7.585,23.676Zm2.5,6.068c.917,5.645,3.078,9.608,5.594,9.608s4.677-3.963,5.594-9.608Zm10.069,8.95a15.724,15.724,0,0,0,9.987-8.95H23.311A21.334,21.334,0,0,1,20.151,38.694ZM1.22,29.744a15.709,15.709,0,0,0,9.987,8.95,21.334,21.334,0,0,1-3.16-8.95H1.22Z" transform="translate(0 -8)" fill="#5c5c5c"/>
</svg>
